<svg xmlns="http://www.w3.org/2000/svg" width="512" height="512"><path d="M496 120h-64V96a87.951 87.951 0 0 0-148-64.31A87.951 87.951 0 0 0 136 96v24H64a8 8 0 0 0-8 8v161.63a87.978 87.978 0 0 0 0 156.74V496a8 8 0 0 0 8 8h432a8 8 0 0 0 8-8V128a8 8 0 0 0-8-8ZM296 96v24h-24V96a71.611 71.611 0 0 1 12-39.74A71.611 71.611 0 0 1 296 96Zm8 112a8 8 0 0 0 8-8v-13.83a16 16 0 1 1-16 0V200a8 8 0 0 0 8 8ZM152 96a71.95 71.95 0 0 1 121.33-52.38A87.583 87.583 0 0 0 256 96v24H152Zm-8 112a8 8 0 0 0 8-8v-13.83a16 16 0 1 1-16 0V200a8 8 0 0 0 8 8ZM24 368a72 72 0 1 1 72 72 72.083 72.083 0 0 1-72-72Zm368 120H72v-35.33a88 88 0 1 0 0-169.34V136h64v33.01a32 32 0 1 0 16 0V136h144v33.01a32 32 0 1 0 16 0V136h80Zm-80-368V96a87.583 87.583 0 0 0-17.33-52.38A71.95 71.95 0 0 1 416 96v24Zm176 368h-80V136h80Z"/><path d="M448 432a8 8 0 0 0 8-8V152a8 8 0 0 0-16 0v272a8 8 0 0 0 8 8ZM448 472a8 8 0 0 0 8-8v-16a8 8 0 0 0-16 0v16a8 8 0 0 0 8 8ZM152 384v-32a8 8 0 0 0-8-8H48a8 8 0 0 0-8 8v32a8 8 0 0 0 8 8h96a8 8 0 0 0 8-8Zm-16-8H56v-16h80Z"/></svg>