<svg xmlns="http://www.w3.org/2000/svg" width="512" height="512"><path d="M496 104h-48v-8a87.951 87.951 0 0 0-148-64.31A87.951 87.951 0 0 0 152 96v8H80a8 8 0 0 0-8 8v232H32a24.032 24.032 0 0 0-24 24v112a24.032 24.032 0 0 0 24 24h176a24.032 24.032 0 0 0 24-24v-8h264a8 8 0 0 0 8-8V112a8 8 0 0 0-8-8Zm-184-8v8h-24v-8a71.611 71.611 0 0 1 12-39.74A71.611 71.611 0 0 1 312 96Zm8 96a8 8 0 0 0 8-8v-13.83a16 16 0 1 1-16 0V184a8 8 0 0 0 8 8ZM168 96a71.95 71.95 0 0 1 121.33-52.38A87.583 87.583 0 0 0 272 96v8H168Zm-8 96a8 8 0 0 0 8-8v-13.83a16 16 0 1 1-16 0V184a8 8 0 0 0 8 8Zm56 288a8.011 8.011 0 0 1-8 8H32a8.011 8.011 0 0 1-8-8v-56h192Zm0-72H24v-16h192Zm0-32H24v-8a8.011 8.011 0 0 1 8-8h176a8.011 8.011 0 0 1 8 8Zm176 80H232v-88a24.032 24.032 0 0 0-24-24H88V120h64v33.01a32 32 0 1 0 16 0V120h144v33.01a32 32 0 1 0 16 0V120h64Zm-64-352v-8a87.583 87.583 0 0 0-17.33-52.38A71.95 71.95 0 0 1 432 96v8Zm160 352h-80V120h80Z"/><path d="M440 392a8 8 0 0 0 16 0V136a8 8 0 0 0-16 0ZM448 408a8 8 0 0 0-8 8v16a8 8 0 0 0 16 0v-16a8 8 0 0 0-8-8ZM48 464h-8a8 8 0 0 0 0 16h8a8 8 0 0 0 0-16ZM168 464h-8a8 8 0 0 0 0 16h8a8 8 0 0 0 0-16ZM200 464h-8a8 8 0 0 0 0 16h8a8 8 0 0 0 0-16Z"/></svg>