<svg id="Capa_1" enable-background="new 0 0 510 510" height="512" viewBox="0 0 510 510" width="512" xmlns="http://www.w3.org/2000/svg"><g><path d="m0 0v390l255-162.713 10.667-152.287-10.667-75c-7.193 0-247.807 0-255 0z" fill="#f2f4f9"/><path d="m510 0c-7.193 0-247.807 0-255 0v227.287l37.5 63.047 217.5 99.666c0-11.005 0-379.007 0-390z" fill="#dbf0f9"/><circle cx="300" cy="105" fill="#ff9100" r="30"/><path d="m199.04 156.005c-11.044 12.984-187.996 221.011-199.04 233.995l127.5 15 127.5-15 15-81.357-15-81.356c-6.766-8.618-49.149-62.607-55.96-71.282z" fill="#145275"/><path d="m293.514 276.346 25.355 56.827 63.869 56.827 63.631 15 63.631-15c-4.408-5.338-151.809-183.835-156.212-189.167-16.396 20.541-50.714 63.535-60.274 75.513z" fill="#002030"/><path d="m255 227.287v162.713l63.869 15 63.869-15c-7.089-9.03-120.649-153.683-127.738-162.713z" fill="#00395a"/><path d="m0 420v90h255l20-45-20-45-127.5-15z" fill="#00da7b"/><path d="m510 420-127.5-15-127.5 15v90h255z" fill="#00bea5"/><path d="m0 390v30h255l20-15-20-15c-7.193 0-247.807 0-255 0z" fill="#abe751"/><path d="m510 390h-255v30h255z" fill="#00da7b"/></g></svg>